<?xml version="1.0" encoding="utf-8"?>
<svg width="90px" height="90px" viewBox="0 0 250 250" style="fill:#151513; color:#fff; position: absolute; top: 0; border: 0; right: 0; z-index: 9999" xmlns="http://www.w3.org/2000/svg" xmlns:bx="https://boxy-svg.com">
  <path d="M -0.402 -251.502 L -0.402 -1.502 L -250.402 -1.502 L -0.402 -251.502 Z" style="stroke: rgb(0, 0, 0);" transform="matrix(0, -1, 1, 0, 251.501999, -0.401993)" bx:shape="triangle -250.402 -251.502 250 250 1 0 1@61fcda4a"/>
  <rect style="stroke: rgb(0, 0, 0); fill: rgb(255, 255, 255);" transform="matrix(0.707107, 0.707107, -0.707107, 0.707107, 94.295563, -57.598515)" x="101.957" y="1.458" width="90" height="90" rx="15" ry="15"/>
  <path d="M 189.991 29.716 L 131.658 29.716 C 120.153 29.716 110.825 39.044 110.825 50.549 L 110.825 108.882 C 110.825 120.387 120.153 129.716 131.658 129.716 L 189.991 129.716 C 201.5 129.716 210.825 120.387 210.825 108.882 L 210.825 50.549 C 210.825 39.044 201.5 29.716 189.991 29.716 Z M 144.158 108.882 L 131.658 108.882 L 131.658 63.049 L 144.158 63.049 L 144.158 108.882 Z M 137.909 57.767 C 133.885 57.767 130.618 54.473 130.618 50.416 C 130.618 46.358 133.885 43.067 137.909 43.067 C 141.933 43.067 145.2 46.358 145.2 50.416 C 145.2 54.473 141.938 57.767 137.909 57.767 Z M 194.158 108.882 L 181.658 108.882 L 181.658 85.533 C 181.658 71.5 164.991 72.562 164.991 85.533 L 164.991 108.882 L 152.491 108.882 L 152.491 63.049 L 164.991 63.049 L 164.991 70.404 C 170.809 59.629 194.158 58.833 194.158 80.72 L 194.158 108.882 Z" transform="matrix(0.707107, 0.707107, -0.707107, 0.707107, 103.472275, -90.37217)"/>
</svg>